# AST/ASF file generated using VICON BodyLanguage
# -----------------------------------------------
:version 1.10
:name VICON
:units
  mass 1.0
  length 0.45
  angle deg
:documentation
   .ast/.asf automatically generated from VICON data using
   VICON BodyBuilder and BodyLanguage model FoxedUp or BRILLIANT.MOD
:root
   order TX TY TZ RX RY RZ
   axis XYZ
   position 0 0 0  
   orientation 0 0 0 
:bonedata
  begin
     id 1 
     name lhipjoint
     direction 0.566809 -0.746272 0.349008 
     length 2.40479 
     axis 0 0 0  XYZ
  end
  begin
     id 2 
     name lfemur
     direction 0.34202 -0.939693 0  
     length 7.1578  
     axis 0 0 20  XYZ
    dof rx ry rz
    limits (-160.0 20.0)
           (-70.0 70.0)
           (-60.0 70.0)
  end
  begin
     id 3 
     name ltibia
     direction 0.34202 -0.939693 0   
     length 7.49137   
     axis 0 0 20   XYZ
    dof rx
    limits (-10.0 170.0)
  end
  begin
     id 4 
     name lfoot
     direction 0.0665746 -0.182912 0.980873   
     length 2.36784   
     axis -90 7.62852e-016 20   XYZ
    dof rx rz
    limits (-45.0 90.0)
           (-70.0 20.0)
  end
  begin
     id 5 
     name ltoes
     direction 1.53601e-011 -4.22058e-011 1   
     length 1.18966   
     axis -90 7.62852e-016 20   XYZ
    dof rx
    limits (-90.0 20.0)
  end
  begin
     id 6 
     name rhipjoint
     direction -0.550236 -0.756381 0.353735   
     length 2.37265  
     axis 0 0 0  XYZ 
  end
  begin
     id 7 
     name rfemur
     direction -0.34202 -0.939693 0   
     length 7.43386   
     axis 0 0 -20   XYZ
    dof rx ry rz
    limits (-160.0 20.0)
           (-70.0 70.0)
           (-70.0 60.0)
  end
  begin
     id 8 
     name rtibia
     direction -0.34202 -0.939693 0   
     length 7.50908   
     axis 0 0 -20   XYZ
    dof rx
    limits (-10.0 170.0)
 end
 begin
     id 9 
     name rfoot
     direction -0.0683029 -0.187661 0.979856   
     length 2.41173  
     axis -90 -7.62852e-016 -20   XYZ
    dof rx rz
    limits (-45.0 90.0)
           (-20.0 70.0)
  end
  begin
     id 10 
     name rtoes
     direction -1.53528e-011 -4.21968e-011 1   
     length 1.21082   
     axis -90 -7.62852e-016 -20   XYZ
    dof rx
    limits (-90.0 20.0)
  end
  begin
     id 11 
     name lowerback
     direction 0.013823 0.995423 -0.0945635   
     length 2.04495   
     axis 0 0 0   XYZ
    dof rx ry rz
    limits (-20.0 45.0)
           (-30.0 30.0)
           (-30.0 30.0)
  end
  begin
     id 12 
     name upperback
     direction 0.0276657 0.9994 -0.020853   
     length 2.05008   
     axis 0 0 0   XYZ
    dof rx ry rz
    limits (-20.0 45.0)
           (-30.0 30.0)
           (-30.0 30.0)
  end
  begin
     id 13 
     name thorax
     direction 0.019782 0.999531 0.0233827   
     length 2.06488   
     axis 0 0 0   XYZ
    dof rx ry rz
    limits (-20.0 45.0)
           (-30.0 30.0)
           (-30.0 30.0)
  end
  begin
     id 14 
     name lowerneck
     direction -0.0308541 0.994709 0.0979874   
     length 1.75553   
     axis 0 0 0   XYZ
    dof rx ry rz
    limits (-20.0 45.0)
           (-30.0 30.0)
           (-30.0 30.0)
  end
  begin
     id 15 
     name upperneck
     direction 0.0588398 0.995804 -0.0700903   
     length 1.76878   
     axis 0 0 0   XYZ
    dof rx ry rz
    limits (-20.0 45.0)
           (-30.0 30.0)
           (-30.0 30.0)
  end
  begin
     id 16
     name head
     direction 0.0209966 0.999159 -0.0352225  
     length 1.77193  
     axis 0 0 0   XYZ
    dof rx ry rz
    limits (-20.0 45.0)
           (-30.0 30.0)
           (-30.0 30.0)
  end
  begin
     id 17 
     name lclavicle
     direction 0.938182 0.335073 -0.0868338  
     length 3.58396  
     axis 0 0 0   XYZ
    dof ry rz
    limits (-20.0 10.0)
           (0.0 20.0)
  end
  begin
     id 18 
     name lhumerus
     direction 1 -4.48971e-011 -1.26313e-017   
     length 4.983   
     axis 180 -30 -90   XYZ
    dof rx ry rz
    limits (-60.0 90.0)
           (-90.0 90.0)
           (-90.0 90.0)
  end
  begin
     id 19
     name lradius
     direction 1 -4.48948e-011 -5.89033e-027   
     length 3.48356   
     axis 180 -30 -90   XYZ
    dof rx
    limits (-10.0 170.0)
  end
  begin
     id 20
     name lwrist
     direction 1 -4.48977e-011 -1.48983e-026   
     length 1.74178   
     axis 9.0955e-015 90 90   XYZ
    dof ry
    limits (-180.0 0.0)
 end
  begin
     id 21 
     name lhand
     direction 1 -4.49046e-011 -2.98066e-026   
     length 0.715259   
     axis 1.90115e-014 90 90   XYZ
    dof rx rz
    limits (-90.0 90.0)
           (-45.0 45.0)
  end
  begin
     id 22 
     name lfingers
     direction 1 -4.48907e-011 -5.95731e-026   
     length 0.576661   
     axis 3.80223e-014 90 90   XYZ
    dof rx
    limits (0.0 90.0)
  end
  begin
     id 23
     name lthumb
     direction 0.707107 -6.34963e-011 0.707107   
     length 0.827973   
     axis -90 45 -3.84942e-014   XYZ
    dof rx rz
    limits (-45.0 45.0)
           (-45.0 45.0)
  end
  begin
     id 24 
     name rclavicle
     direction -0.909637 0.398485 -0.11735   
     length 3.44819  
     axis 0 0 0   XYZ 
    dof ry rz
    limits (-10.0 20.0)
           (-20.0 0.0)
  end
  begin
     id 25 
     name rhumerus
     direction -1 -4.48978e-011 -1.09333e-027  
     length 5.2419   
     axis 180 30 90   XYZ
    dof rx ry rz
    limits (-90.0 60.0)
           (-90.0 90.0)
           (-90.0 90.0)
  end
  begin
     id 26 
     name rradius
     direction -1 -4.48953e-011 -7.61841e-027   
     length 3.44417   
     axis 180 30 90   XYZ
    dof rx
    limits (-10.0 170.0)
  end
  begin
     id 27 
     name rwrist
     direction -1 -4.48977e-011 -1.48983e-026   
     length 1.72209   
     axis 9.0955e-015 -90 -90   XYZ
    dof ry
    limits (-180.0 0.0)
  end
  begin
     id 28
     name rhand
     direction -1 -4.49027e-011 -2.98038e-026   
     length 0.622529   
     axis 1.90115e-014 -90 -90   XYZ
    dof rx rz
    limits (-90.0 90.0)
           (-45.0 45.0)
  end
  begin
     id 29
     name rfingers
     direction -1 -4.48838e-011 -5.95531e-026   
     length 0.501899   
     axis 3.80223e-014 -90 -90   XYZ
    dof rx
    limits (0.0 90.0)
  end
  begin
     id 30
     name rthumb
     direction -0.707107 -6.34937e-011 0.707107   
     length 0.720629   
     axis -90 -45 3.84942e-014   XYZ
    dof rx rz
    limits (-45.0 45.0)
           (-45.0 45.0)
  end
:hierarchy
  begin
    root lhipjoint rhipjoint lowerback
    lhipjoint lfemur
    lfemur ltibia
    ltibia lfoot
    lfoot ltoes
    rhipjoint rfemur
    rfemur rtibia
    rtibia rfoot
    rfoot rtoes
    lowerback upperback
    upperback thorax
    thorax lowerneck lclavicle rclavicle
    lowerneck upperneck
    upperneck head
    lclavicle lhumerus
    lhumerus lradius
    lradius lwrist
    lwrist lhand lthumb
    lhand lfingers
    rclavicle rhumerus
    rhumerus rradius
    rradius rwrist
    rwrist rhand rthumb
    rhand rfingers
  end

#!OML:ASF F:\VICON\USERDATA\Patient Classification 1\PLAYGROUND\JustinFriday\JustinFriday.ASF
:FULLY-SPECIFIED
:DEGREES
1128
root -22.6358 29.3956 -9.75298 290.495 75.7319 -77.1064
lowerback 52.2795 3.58185 -2.29738
upperback 10.7014 6.12328 7.58794
thorax -9.95724 3.17341 6.51253
lowerneck -5.29858 -13.0894 -8.40465
upperneck -4.97882 -17.0937 16.3485
head 1.5777 -8.4843 5.42897
rclavicle -2.88238e-014 -1.13307e-014
rhumerus 66.5873 9.27235 -55.4958
rradius 31.2629
rwrist 8.7402
rhand -19.8892 -8.52565
rfingers 7.12502
rthumb 6.44681 -38.4075
lclavicle -2.88238e-014 -1.13307e-014
lhumerus 58.767 2.13879 69.6058
lradius 33.5113
lwrist -26.3198
lhand -1.92903 -17.5827
lfingers 7.12502
lthumb 23.7415 10.9708
rfemur -32.4303 9.91022 34.92
rtibia 27.5406
rfoot -28.3924 -10.636
rtoes 11.4098
lfemur -41.1578 8.92185 -8.45905
ltibia 42.3993
lfoot -33.0197 -3.51479
ltoes 15.5239
1129
root -22.5919 29.3819 -9.77046 291.503 74.5742 -76.4736
lowerback 52.0148 3.71043 -1.6484
upperback 10.7694 6.62824 7.80343
thorax -9.90884 3.38763 6.21381
lowerneck -4.57871 -12.3499 -9.73709
upperneck -5.81251 -15.9868 18.14
head 1.37615 -7.96441 6.31574
rclavicle 4.31363e-014 1.08338e-014
rhumerus 64.3508 10.0654 -47.8905
rradius 37.2522
rwrist 1.75855
rhand -20.332 -11.8184
rfingers 7.12502
rthumb 6.01927 -41.7129
lclavicle 4.31363e-014 1.08338e-014
lhumerus 58.3903 1.95194 70.0766
lradius 34.3045
lwrist -26.1356
lhand -1.75147 -17.066
lfingers 7.12502
lthumb 23.9117 11.4652
rfemur -32.9424 10.3515 36.1035
rtibia 28.2893
rfoot -29.4815 -8.21916
rtoes 18.1964
lfemur -41.5686 12.0183 -8.05532
ltibia 41.8838
lfoot -31.4046 -5.76746
ltoes 13.8027
1130
root -22.5916 29.4654 -9.7735 295.774 76.6253 -73.2896
lowerback 50.2232 4.15146 -3.34972
upperback 10.9277 6.17402 7.45028
thorax -9.48534 3.19615 6.86006
lowerneck -6.76813 -12.1492 -7.09072
upperneck -3.08065 -15.9338 13.4562
head 1.8536 -7.82093 4.36559
rclavicle 7.32522e-014 2.8128e-014
rhumerus 64.9642 8.87307 -52.8388
rradius 33.699
rwrist 6.55878
rhand -20.0049 -8.75328
rfingers 7.12502
rthumb 6.33509 -38.6385
lclavicle 7.32522e-014 2.8128e-014
lhumerus 58.1327 1.80622 70.9583
lradius 34.9167
lwrist -26.6307
lhand -1.49747 -16.8885
lfingers 7.12502
lthumb 24.1553 11.6106
rfemur -34.7166 10.5037 33.282
rtibia 29.0524
rfoot -29.5823 -8.72214
rtoes 16.2269
lfemur -41.9314 8.02125 -9.33341
ltibia 41.1988
lfoot -31.5744 -0.974057
ltoes 10.8969
1131
root -22.5774 29.5601 -9.7339 301.907 79.8603 -69.1678
lowerback 45.6061 4.4976 -6.362
upperback 12.1994 5.21346 6.98595
thorax -8.44085 2.78341 8.45071
lowerneck -3.94258 -12.397 -6.89631
upperneck -4.97624 -16.2556 15.0199
head 1.00941 -8.14846 5.00532
rclavicle -1.50082e-014 -2.34566e-014
rhumerus 65.2398 9.1732 -53.1933
rradius 33.0506
rwrist 6.82991
rhand -20.2004 -8.19886
rfingers 7.12502
rthumb 6.14635 -38.0897
lclavicle -1.50082e-014 -2.34566e-014
lhumerus 57.6422 1.87197 71.2673
lradius 35.6663
lwrist -26.8632
lhand -1.24723 -17.1136
lfingers 7.12502
lthumb 24.3952 11.3535
rfemur -37.7109 10.0998 29.0953
rtibia 30.0472
rfoot -30.4684 -6.95717
rtoes 20.8449
lfemur -43.8996 8.25008 -13.6449
ltibia 40.5095
lfoot -30.6702 -2.33688
ltoes 13.2687
1132
root -22.5538 29.5197 -9.78232 304.925 78.5533 -66.0738
lowerback 46.2559 4.73884 -5.61584
upperback 12.0738 5.71114 6.54273
thorax -8.72082 3.01792 7.3165
lowerneck -9.13743 -11.3584 -6.30846
upperneck 2.83469 -15.1778 10.6086
head 3.61992 -7.26917 3.18128
rclavicle 1.2921e-014 3.98563e-014
rhumerus 64.9572 8.76036 -54.6726
rradius 32.9524
rwrist 7.56395
rhand -20.2506 -7.62211
rfingers 7.12502
rthumb 6.09786 -37.5143
lclavicle 1.2921e-014 3.98563e-014
lhumerus 57.6355 1.58898 71.3836
lradius 36.2563
lwrist -27.4859
lhand -0.9916 -17.5473
lfingers 7.12502
lthumb 24.6403 10.8866
rfemur -38.0176 10.1917 30.4683
rtibia 31.056
rfoot -29.7822 -8.20072
rtoes 14.0815
lfemur -43.624 10.6435 -13.4251
ltibia 39.8313
lfoot -29.734 -3.15596
ltoes 12.8854
1133
root -22.5049 29.5213 -9.82271 306.727 79.1586 -64.8141
lowerback 45.4467 4.34734 -5.26167
upperback 12.1516 5.31393 5.78273
thorax -8.2403 2.84941 6.51931
lowerneck -8.64054 -10.6432 -1.79859
upperneck 2.84178 -14.5171 7.63044
head 3.20474 -7.02277 1.94063
rclavicle 2.88238e-014 -4.96962e-015
rhumerus 64.4218 8.1295 -54.849
rradius 33.2718
rwrist 7.18278
rhand -20.5098 -6.99292
rfingers 7.12502
rthumb 5.84761 -36.8922
lclavicle 2.88238e-014 -4.96962e-015
lhumerus 57.6197 0.969858 70.5064
lradius 37.1828
lwrist -26.6723
lhand -1.19611 -17.2221
lfingers 7.12502
lthumb 24.4442 11.2383
rfemur -38.815 8.65675 30.2942
rtibia 31.8604
rfoot -29.7112 -7.39419
rtoes 10.4427
lfemur -44.0625 11.2175 -14.6969
ltibia 39.6296
lfoot -29.4728 -4.05987
ltoes 14.3921
